<svg id="Layer_1" data-name="Layer 1" xmlns="http://www.w3.org/2000/svg" viewBox="0 0 382 90.53"><defs><style>.cls-1{fill:#fff;}</style></defs><title>bakesale2go-logo</title><path class="cls-1" d="M23.79,46.64a15.07,15.07,0,0,1,5.46,5.3,14.17,14.17,0,0,1,2.1,7.59A14.68,14.68,0,0,1,16.61,74.28H7.27v-26H2l2.1-3.56H7.27V31.08h11.5a8.57,8.57,0,0,1,8.58,8.64A8.06,8.06,0,0,1,23.79,46.64Zm-13-1.84h8a4.71,4.71,0,0,0,3.68-1.56,5.14,5.14,0,0,0,1.4-3.53A4.92,4.92,0,0,0,22.36,36a5,5,0,0,0-3.59-1.43h-8Zm0,3.49V70.78h5.84a10.64,10.64,0,0,0,8-3.37,11.06,11.06,0,0,0,3.21-7.88,10.85,10.85,0,0,0-1.56-5.78,11.28,11.28,0,0,0-4.16-4,11.14,11.14,0,0,0-5.53-1.46Z" transform="translate(-2 -1.46)"/><path class="cls-1" d="M62.92,70.78A13.58,13.58,0,0,1,43.35,71,13.69,13.69,0,0,1,53,47.6a13.32,13.32,0,0,1,9.91,4.26l3.81-3.56v26ZM53,51.09a10.29,10.29,0,0,0-7.27,17.5,10.35,10.35,0,0,0,14.52,0A10.23,10.23,0,0,0,53,51.09Z" transform="translate(-2 -1.46)"/><path class="cls-1" d="M93.41,74.28H89.15l-9.08-13v13H76.58V31.08h3.49V60.36L87.5,48.3h4.13L83.95,60.75Z" transform="translate(-2 -1.46)"/><path class="cls-1" d="M124.09,66.08l3,1.71a13.53,13.53,0,0,1-5,5.24,13.78,13.78,0,0,1-20.84-11.72,13.13,13.13,0,0,1,4.07-9.72,13.81,13.81,0,0,1,21.22,2.29L108.91,69.51a10.35,10.35,0,0,0,11.47.57A10.11,10.11,0,0,0,124.09,66.08Zm-17.53,1,15.18-13.47a10.18,10.18,0,0,0-16.9,7.75A10.18,10.18,0,0,0,106.56,67Z" transform="translate(-2 -1.46)"/><path class="cls-1" d="M138.2,68.75a4.34,4.34,0,0,0,4.19,2.54A4.56,4.56,0,0,0,147,66.65a4.62,4.62,0,0,0-.92-2.83,4.22,4.22,0,0,0-2.32-1.62l-3-.89a7.17,7.17,0,0,1-3.68-2.51,6.53,6.53,0,0,1-1.4-4.1,6.83,6.83,0,0,1,6.86-6.86A6.77,6.77,0,0,1,146.29,49a6.42,6.42,0,0,1,2.51,3l-3.18,1.33a3,3,0,0,0-3.11-2,3.17,3.17,0,0,0-2.41,1,3.33,3.33,0,0,0-1,2.35A3.08,3.08,0,0,0,141.62,58l3,.89a7.61,7.61,0,0,1,4.22,2.86,8.12,8.12,0,0,1-6.51,13.09,7.83,7.83,0,0,1-4.19-1.18,8.7,8.7,0,0,1-3-3.21Z" transform="translate(-2 -1.46)"/><path class="cls-1" d="M182.09,70.78a13.76,13.76,0,0,1-23.63-9.47,13.13,13.13,0,0,1,4.07-9.72,13.66,13.66,0,0,1,19.57.25l3.81-3.56v26Zm-9.91-19.69a10.29,10.29,0,0,0-7.27,17.5,10.26,10.26,0,0,0,14.52-14.52A9.86,9.86,0,0,0,172.18,51.09Z" transform="translate(-2 -1.46)"/><path class="cls-1" d="M195.75,74.28V31.08h3.49v43.2Z" transform="translate(-2 -1.46)"/><path class="cls-1" d="M230.88,66.08l3,1.71A13.53,13.53,0,0,1,229,73a13.78,13.78,0,0,1-20.84-11.72,13.13,13.13,0,0,1,4.06-9.72,13.81,13.81,0,0,1,21.22,2.29L215.69,69.51a10.35,10.35,0,0,0,11.47.57A10.11,10.11,0,0,0,230.88,66.08Zm-17.53,1,15.18-13.47a10.18,10.18,0,0,0-16.9,7.75A10.17,10.17,0,0,0,213.34,67Z" transform="translate(-2 -1.46)"/><path class="cls-1" d="M302,57.82,295.66,92H228.29q.38-6.23,6.81-13.8,5.73-6.55,22-18.26,9-6.62,10.94-8.33l.89-.86q.51-.48,1.15-1.11a35.52,35.52,0,0,0,7.32-10.5,29.71,29.71,0,0,0,2.23-11.77q0-11.2-5.5-17.18t-15.62-6a31.78,31.78,0,0,0-14.06,3.12,25.52,25.52,0,0,0-10.12,8.46,20.16,20.16,0,0,0-3.69,11.71q0,6.93,3.12,6.93,1.27,0,1.46-1.84a15,15,0,0,1,.89-3.12,13.07,13.07,0,0,1,4.36-5.76,11.36,11.36,0,0,1,6.58-1.81,12,12,0,0,1,5.82,1.4,9.7,9.7,0,0,1,4,4,11.74,11.74,0,0,1,1.4,5.69,11.92,11.92,0,0,1-1.81,6.46,12.81,12.81,0,0,1-4.9,4.55,14.51,14.51,0,0,1-7,1.65,15.39,15.39,0,0,1-11.8-5A17.86,17.86,0,0,1,228.16,28,24.16,24.16,0,0,1,230,18.86a23.59,23.59,0,0,1,5.25-7.92q9.29-9.48,28.63-9.48A53.91,53.91,0,0,1,278.68,3.4,36.13,36.13,0,0,1,290.38,9a25.52,25.52,0,0,1,7.51,8.52,22.26,22.26,0,0,1,2.61,10.62A21.87,21.87,0,0,1,294.71,43a29.88,29.88,0,0,1-5.6,5.22q-6.11,4-18.32,9.1-17.11,7.19-24,12.53-1.59,1.14-6.11,5.22h41.54A28.29,28.29,0,0,0,291,74a8.91,8.91,0,0,0,4.74-3.79,27.79,27.79,0,0,0,3-8.21l.89-4.2Z" transform="translate(-2 -1.46)"/><path class="cls-1" d="M333.69,76.87a9.29,9.29,0,0,1-1.93,3.95,11.51,11.51,0,0,1-4.29,3.1,18.49,18.49,0,0,1-7.52,1.27,17.52,17.52,0,0,1-4.1-.5A13.06,13.06,0,0,1,312,83.12a9.39,9.39,0,0,1-2.86-2.73,7.9,7.9,0,0,1-1.3-4h7.47a4.29,4.29,0,0,0,2.07,2.94,7.41,7.41,0,0,0,3.55.82,5.46,5.46,0,0,0,4.63-1.91,7.48,7.48,0,0,0,1.4-4.82v-3.6h-.11a7.45,7.45,0,0,1-3.47,3.2,11.25,11.25,0,0,1-4.74,1,12,12,0,0,1-5.3-1.09,10,10,0,0,1-3.66-3,12.35,12.35,0,0,1-2.09-4.4,20.79,20.79,0,0,1-.66-5.32,17.07,17.07,0,0,1,.77-5.11A13.35,13.35,0,0,1,310,50.84a10.87,10.87,0,0,1,3.68-3,11.05,11.05,0,0,1,5.06-1.11,10.6,10.6,0,0,1,4.74,1,8.19,8.19,0,0,1,3.42,3.39H327V47.47h7.15V73.11A18.36,18.36,0,0,1,333.69,76.87Zm-10.3-9.11a5.86,5.86,0,0,0,2-1.69,7.5,7.5,0,0,0,1.19-2.41,10,10,0,0,0,.4-2.83,15.53,15.53,0,0,0-.32-3.2,8,8,0,0,0-1.06-2.67,5.5,5.5,0,0,0-2-1.85,6.19,6.19,0,0,0-3.07-.69,5.51,5.51,0,0,0-2.73.64,5.73,5.73,0,0,0-1.91,1.72,7.24,7.24,0,0,0-1.11,2.49,12.25,12.25,0,0,0-.34,2.94,15,15,0,0,0,.29,2.94,7.92,7.92,0,0,0,1,2.62,5.86,5.86,0,0,0,1.88,1.91,5.32,5.32,0,0,0,2.91.74A6,6,0,0,0,323.39,67.76Z" transform="translate(-2 -1.46)"/><path class="cls-1" d="M384,68.95a5.73,5.73,0,0,1-1.64,4.24,6.26,6.26,0,0,1-4.71,1.8q-2.86,0-6.83-3.5-.37-.32-2-2.12a7.78,7.78,0,0,0-2.12-1.8,1.18,1.18,0,0,0-.42.79,30.22,30.22,0,0,0,.87,4.26,25.5,25.5,0,0,1,.87,5.75,5.11,5.11,0,0,1-1.77,3.87,5.68,5.68,0,0,1-3.95,1.64,4.87,4.87,0,0,1-4.16-2.59,11.93,11.93,0,0,1-1.67-6.57A57.22,57.22,0,0,1,358.26,68a.76.76,0,0,0-.74-.58q-.48,0-1.06.85-1.32,1.86-1.48,2-4,4.77-9.43,4.77a4.06,4.06,0,0,1-3.15-1.38A5.4,5.4,0,0,1,341.15,70a7,7,0,0,1,3.23-5.75q3.23-2.41,9.43-3.47a3.14,3.14,0,0,0-2.44-1.27l-4.45-.53a7.72,7.72,0,0,1-4.77-2.54,6.1,6.1,0,0,1-1.69-4.13,5.3,5.3,0,0,1,1.77-3.89,5.61,5.61,0,0,1,4-1.72,8.19,8.19,0,0,1,4.66,1.91q4.29,3.13,5,3.55a40.82,40.82,0,0,0-.85-4.61,18.76,18.76,0,0,1-.64-3.92A8.15,8.15,0,0,1,356,38.31a5.25,5.25,0,0,1,4.32-1.93q3.39,0,4.66,2.49,1.16,2.17,1.17,7.57a5.15,5.15,0,0,1-.37,1.51,5.13,5.13,0,0,0-.37,1.56v2.7l.53.58a43.16,43.16,0,0,0,3.81-4.24,23.87,23.87,0,0,1,3.12-3.44,6.32,6.32,0,0,1,4-1.38,5.79,5.79,0,0,1,4.5,1.93,6.16,6.16,0,0,1,1.75,4.21,7,7,0,0,1-3,5.88q-2.81,2-9.22,3.6-.48.48-.79.74,8.16,2.06,10.49,3.34A6,6,0,0,1,384,68.95ZM354.23,56.24a14.12,14.12,0,0,0-3.87-4.55,6.34,6.34,0,0,0-3.6-1.48q-2.22,0-2.22,2.6a3.23,3.23,0,0,0,1.72,2.86,8.78,8.78,0,0,0,4.63,1.06A13.08,13.08,0,0,0,354.23,56.24Zm.53,9.37V64.13a15.3,15.3,0,0,1-2-.42,8.05,8.05,0,0,0-4.66,1.64Q345.6,67.1,345.6,69q0,2.17,2.49,2.17,2,0,4.93-2.54A4.22,4.22,0,0,0,354.76,65.61ZM363,46.12q0-4.29-2.86-4.29-2.33,0-2.33,2.44,0,6.2,3,8.53A9.64,9.64,0,0,0,363,46.12Zm2.7,14.14a3.15,3.15,0,0,0-1.09-2.38,3.53,3.53,0,0,0-2.46-1,3.49,3.49,0,0,0-2.52,1.06,3.31,3.31,0,0,0-1.09,2.44,2.94,2.94,0,0,0,1.24,2.33,4.38,4.38,0,0,0,2.83,1,2.82,2.82,0,0,0,2.2-1A3.56,3.56,0,0,0,365.73,60.26Zm-.9,16.21a14.75,14.75,0,0,0-1-5.51q-1-2.23-2.12-2.65-1.85,2.28-1.85,6.62a5.08,5.08,0,0,0,.82,2.91,2.33,2.33,0,0,0,1.93,1.22Q364.83,79.07,364.83,76.47ZM378,50.36q0-1.59-2.22-1.59-1.91,0-4.58,2.54t-2.67,4.45a.76.76,0,0,0,.42.74h1.75a8,8,0,0,0,4.85-1.91A5.38,5.38,0,0,0,378,50.36Zm1.48,18.06q0-1.69-2.54-3.2a10.6,10.6,0,0,0-5.51-1.51,5.22,5.22,0,0,0-2.22.42l.53,1.75q4.82,4.87,7.73,4.87a1.81,1.81,0,0,0,1.35-.82A2.49,2.49,0,0,0,379.44,68.42Z" transform="translate(-2 -1.46)"/></svg>